STARTFONT 2.1
COMMENT Copyright (C) 2022 by Andrew G. Crowell. Creative Commons Attribution 4.0 International License (CC BY 4.0).
COMMENT om_tall_hvshadow_outline.bdf
FONT -eggboycolor-omelette_tall_hvshadow_outline-medium-r-normal--8-100-72-72-m-90-ISO8859-1
SIZE 8 72 72
FONTBOUNDINGBOX 8 16 0 -2
STARTPROPERTIES 13
FONT_ASCENT 14 
FONT_DESCENT 2
PIXEL_SIZE 16
POINT_SIZE 100
RESOLUTION_X 72
RESOLUTION_Y 72
SPACING "C"
DEFAULT_CHAR 32
AVERAGE_WIDTH 90
CHARSET_REGISTRY "ISO8859"
CHARSET_ENCODING "1"
FOUNDRY "eggboycolor"
COPYRIGHT "Copyright (C) 2022 by Andrew G. Crowell. Creative Commons Attribution 4.0 International License (CC BY 4.0)."
ENDPROPERTIES
CHARS 96
STARTCHAR char32
ENCODING 32
SWIDTH 800 0
DWIDTH 8 0
BBX 8 16 0 -2
BITMAP
00
00
00
00
00
00
00
00
00
00
00
00
00
00
00
00
ENDCHAR
STARTCHAR char33
ENCODING 33
SWIDTH 800 0
DWIDTH 8 0
BBX 8 16 0 -2
BITMAP
00
02
01
01
01
01
03
06
0C
08
38
00
08
08
38
00
ENDCHAR
STARTCHAR char34
ENCODING 34
SWIDTH 800 0
DWIDTH 8 0
BBX 8 16 0 -2
BITMAP
00
00
11
11
11
3B
66
00
00
00
00
00
00
00
00
00
ENDCHAR
STARTCHAR char35
ENCODING 35
SWIDTH 800 0
DWIDTH 8 0
BBX 8 16 0 -2
BITMAP
00
00
00
12
12
01
13
12
01
13
12
7E
00
00
00
00
ENDCHAR
STARTCHAR char36
ENCODING 36
SWIDTH 800 0
DWIDTH 8 0
BBX 8 16 0 -2
BITMAP
00
00
04
04
01
17
14
14
42
29
09
09
03
6E
08
18
ENDCHAR
STARTCHAR char37
ENCODING 37
SWIDTH 800 0
DWIDTH 8 0
BBX 8 16 0 -2
BITMAP
00
00
00
00
00
11
51
13
66
0C
11
35
61
4F
00
00
ENDCHAR
STARTCHAR char38
ENCODING 38
SWIDTH 800 0
DWIDTH 8 0
BBX 8 16 0 -2
BITMAP
00
00
00
08
14
14
14
4C
05
11
3B
21
11
45
3F
00
ENDCHAR
STARTCHAR char39
ENCODING 39
SWIDTH 800 0
DWIDTH 8 0
BBX 8 16 0 -2
BITMAP
00
00
04
04
24
0C
38
00
00
00
00
00
00
00
00
00
ENDCHAR
STARTCHAR char40
ENCODING 40
SWIDTH 800 0
DWIDTH 8 0
BBX 8 16 0 -2
BITMAP
00
02
06
0C
08
08
08
08
08
08
08
08
24
12
0E
00
ENDCHAR
STARTCHAR char41
ENCODING 41
SWIDTH 800 0
DWIDTH 8 0
BBX 8 16 0 -2
BITMAP
00
08
24
12
02
02
02
02
02
02
02
02
06
0C
38
00
ENDCHAR
STARTCHAR char42
ENCODING 42
SWIDTH 800 0
DWIDTH 8 0
BBX 8 16 0 -2
BITMAP
00
00
00
00
08
2A
46
04
2A
6E
18
00
00
00
00
00
ENDCHAR
STARTCHAR char43
ENCODING 43
SWIDTH 800 0
DWIDTH 8 0
BBX 8 16 0 -2
BITMAP
00
00
00
00
00
00
08
08
02
6E
08
18
00
00
00
00
ENDCHAR
STARTCHAR char44
ENCODING 44
SWIDTH 800 0
DWIDTH 8 0
BBX 8 16 0 -2
BITMAP
00
00
00
00
00
00
00
00
00
00
00
08
08
28
18
30
ENDCHAR
STARTCHAR char45
ENCODING 45
SWIDTH 800 0
DWIDTH 8 0
BBX 8 16 0 -2
BITMAP
00
00
00
00
00
00
00
00
02
7E
00
00
00
00
00
00
ENDCHAR
STARTCHAR char46
ENCODING 46
SWIDTH 800 0
DWIDTH 8 0
BBX 8 16 0 -2
BITMAP
00
00
00
00
00
00
00
00
00
00
00
00
08
08
38
00
ENDCHAR
STARTCHAR char47
ENCODING 47
SWIDTH 800 0
DWIDTH 8 0
BBX 8 16 0 -2
BITMAP
00
01
01
01
03
02
06
04
0C
08
18
10
30
20
60
00
ENDCHAR
STARTCHAR char48
ENCODING 48
SWIDTH 800 0
DWIDTH 8 0
BBX 8 16 0 -2
BITMAP
00
02
19
11
11
11
11
01
09
09
19
11
11
43
3E
00
ENDCHAR
STARTCHAR char49
ENCODING 49
SWIDTH 800 0
DWIDTH 8 0
BBX 8 16 0 -2
BITMAP
00
04
04
24
04
04
04
04
04
04
04
04
04
02
3E
00
ENDCHAR
STARTCHAR char50
ENCODING 50
SWIDTH 800 0
DWIDTH 8 0
BBX 8 16 0 -2
BITMAP
00
02
19
11
71
03
02
06
04
0C
08
18
10
01
7F
00
ENDCHAR
STARTCHAR char51
ENCODING 51
SWIDTH 800 0
DWIDTH 8 0
BBX 8 16 0 -2
BITMAP
00
02
19
11
11
71
03
02
12
09
11
11
11
43
3E
00
ENDCHAR
STARTCHAR char52
ENCODING 52
SWIDTH 800 0
DWIDTH 8 0
BBX 8 16 0 -2
BITMAP
00
10
12
12
12
12
12
12
01
73
02
02
02
02
0E
00
ENDCHAR
STARTCHAR char53
ENCODING 53
SWIDTH 800 0
DWIDTH 8 0
BBX 8 16 0 -2
BITMAP
00
01
1F
10
10
10
02
79
01
01
01
01
11
43
3E
00
ENDCHAR
STARTCHAR char54
ENCODING 54
SWIDTH 800 0
DWIDTH 8 0
BBX 8 16 0 -2
BITMAP
00
02
0E
18
10
10
02
19
11
11
11
11
11
43
3E
00
ENDCHAR
STARTCHAR char55
ENCODING 55
SWIDTH 800 0
DWIDTH 8 0
BBX 8 16 0 -2
BITMAP
00
01
79
01
01
03
02
06
04
0C
08
08
08
08
38
00
ENDCHAR
STARTCHAR char56
ENCODING 56
SWIDTH 800 0
DWIDTH 8 0
BBX 8 16 0 -2
BITMAP
00
02
19
11
11
11
11
43
19
11
11
11
11
43
3E
00
ENDCHAR
STARTCHAR char57
ENCODING 57
SWIDTH 800 0
DWIDTH 8 0
BBX 8 16 0 -2
BITMAP
00
02
19
11
11
11
11
41
39
01
01
01
03
06
3C
00
ENDCHAR
STARTCHAR char58
ENCODING 58
SWIDTH 800 0
DWIDTH 8 0
BBX 8 16 0 -2
BITMAP
00
00
00
00
00
00
08
08
38
00
00
08
08
38
00
00
ENDCHAR
STARTCHAR char59
ENCODING 59
SWIDTH 800 0
DWIDTH 8 0
BBX 8 16 0 -2
BITMAP
00
00
00
00
00
00
08
08
38
00
00
08
08
28
18
30
ENDCHAR
STARTCHAR char60
ENCODING 60
SWIDTH 800 0
DWIDTH 8 0
BBX 8 16 0 -2
BITMAP
00
00
00
00
00
00
01
03
0E
62
19
07
00
00
00
00
ENDCHAR
STARTCHAR char61
ENCODING 61
SWIDTH 800 0
DWIDTH 8 0
BBX 8 16 0 -2
BITMAP
00
00
00
00
00
00
00
02
7E
02
7E
00
00
00
00
00
ENDCHAR
STARTCHAR char62
ENCODING 62
SWIDTH 800 0
DWIDTH 8 0
BBX 8 16 0 -2
BITMAP
00
00
00
00
00
00
10
44
31
07
1C
70
00
00
00
00
ENDCHAR
STARTCHAR char63
ENCODING 63
SWIDTH 800 0
DWIDTH 8 0
BBX 8 16 0 -2
BITMAP
00
02
01
39
21
61
03
06
0C
08
38
00
08
08
38
00
ENDCHAR
STARTCHAR char64
ENCODING 64
SWIDTH 800 0
DWIDTH 8 0
BBX 8 16 0 -2
BITMAP
00
00
00
04
3A
65
55
55
55
6B
3E
44
3C
00
00
00
ENDCHAR
STARTCHAR char65
ENCODING 65
SWIDTH 800 0
DWIDTH 8 0
BBX 8 16 0 -2
BITMAP
00
04
02
19
11
11
11
01
19
11
11
11
11
11
77
00
ENDCHAR
STARTCHAR char66
ENCODING 66
SWIDTH 800 0
DWIDTH 8 0
BBX 8 16 0 -2
BITMAP
00
04
1A
11
11
11
13
06
1A
11
11
11
13
06
7C
00
ENDCHAR
STARTCHAR char67
ENCODING 67
SWIDTH 800 0
DWIDTH 8 0
BBX 8 16 0 -2
BITMAP
00
02
19
17
10
10
10
10
10
10
10
10
11
43
3E
00
ENDCHAR
STARTCHAR char68
ENCODING 68
SWIDTH 800 0
DWIDTH 8 0
BBX 8 16 0 -2
BITMAP
00
04
1A
11
11
11
11
11
11
11
11
11
13
06
7C
00
ENDCHAR
STARTCHAR char69
ENCODING 69
SWIDTH 800 0
DWIDTH 8 0
BBX 8 16 0 -2
BITMAP
00
01
1F
10
10
10
10
01
1F
10
10
10
10
01
7F
00
ENDCHAR
STARTCHAR char70
ENCODING 70
SWIDTH 800 0
DWIDTH 8 0
BBX 8 16 0 -2
BITMAP
00
01
1F
10
10
10
10
01
1F
10
10
10
10
10
70
00
ENDCHAR
STARTCHAR char71
ENCODING 71
SWIDTH 800 0
DWIDTH 8 0
BBX 8 16 0 -2
BITMAP
00
02
19
11
11
17
10
10
11
19
11
11
11
43
3E
00
ENDCHAR
STARTCHAR char72
ENCODING 72
SWIDTH 800 0
DWIDTH 8 0
BBX 8 16 0 -2
BITMAP
00
11
11
11
11
11
11
01
19
11
11
11
11
11
77
00
ENDCHAR
STARTCHAR char73
ENCODING 73
SWIDTH 800 0
DWIDTH 8 0
BBX 8 16 0 -2
BITMAP
00
01
67
04
04
04
04
04
04
04
04
04
04
01
7F
00
ENDCHAR
STARTCHAR char74
ENCODING 74
SWIDTH 800 0
DWIDTH 8 0
BBX 8 16 0 -2
BITMAP
00
01
19
01
01
01
01
01
01
01
11
11
11
43
3E
00
ENDCHAR
STARTCHAR char75
ENCODING 75
SWIDTH 800 0
DWIDTH 8 0
BBX 8 16 0 -2
BITMAP
00
11
11
13
12
06
04
0C
04
04
12
12
19
11
77
00
ENDCHAR
STARTCHAR char76
ENCODING 76
SWIDTH 800 0
DWIDTH 8 0
BBX 8 16 0 -2
BITMAP
00
10
10
10
10
10
10
10
10
10
10
10
10
01
7F
00
ENDCHAR
STARTCHAR char77
ENCODING 77
SWIDTH 800 0
DWIDTH 8 0
BBX 8 16 0 -2
BITMAP
00
41
21
11
01
01
29
39
21
21
21
21
21
21
67
00
ENDCHAR
STARTCHAR char78
ENCODING 78
SWIDTH 800 0
DWIDTH 8 0
BBX 8 16 0 -2
BITMAP
00
21
21
11
11
09
01
01
01
11
19
11
15
11
73
00
ENDCHAR
STARTCHAR char79
ENCODING 79
SWIDTH 800 0
DWIDTH 8 0
BBX 8 16 0 -2
BITMAP
00
02
19
11
11
11
11
11
11
11
11
11
11
43
3E
00
ENDCHAR
STARTCHAR char80
ENCODING 80
SWIDTH 800 0
DWIDTH 8 0
BBX 8 16 0 -2
BITMAP
00
02
19
11
11
11
11
03
1E
10
10
10
10
10
70
00
ENDCHAR
STARTCHAR char81
ENCODING 81
SWIDTH 800 0
DWIDTH 8 0
BBX 8 16 0 -2
BITMAP
00
02
19
11
11
11
11
11
11
11
11
13
11
49
3D
03
ENDCHAR
STARTCHAR char82
ENCODING 82
SWIDTH 800 0
DWIDTH 8 0
BBX 8 16 0 -2
BITMAP
00
02
19
11
11
11
11
03
06
12
12
19
11
11
77
00
ENDCHAR
STARTCHAR char83
ENCODING 83
SWIDTH 800 0
DWIDTH 8 0
BBX 8 16 0 -2
BITMAP
00
02
19
17
10
10
10
42
39
01
01
01
11
43
3E
00
ENDCHAR
STARTCHAR char84
ENCODING 84
SWIDTH 800 0
DWIDTH 8 0
BBX 8 16 0 -2
BITMAP
00
01
67
04
04
04
04
04
04
04
04
04
04
04
1C
00
ENDCHAR
STARTCHAR char85
ENCODING 85
SWIDTH 800 0
DWIDTH 8 0
BBX 8 16 0 -2
BITMAP
00
11
11
11
11
11
11
11
11
11
11
11
11
43
3E
00
ENDCHAR
STARTCHAR char86
ENCODING 86
SWIDTH 800 0
DWIDTH 8 0
BBX 8 16 0 -2
BITMAP
00
11
11
11
11
11
11
11
11
53
02
02
26
04
1C
00
ENDCHAR
STARTCHAR char87
ENCODING 87
SWIDTH 800 0
DWIDTH 8 0
BBX 8 16 0 -2
BITMAP
00
21
21
21
21
21
21
29
29
01
01
11
39
65
43
00
ENDCHAR
STARTCHAR char88
ENCODING 88
SWIDTH 800 0
DWIDTH 8 0
BBX 8 16 0 -2
BITMAP
00
11
11
11
11
53
02
26
02
1A
11
11
11
11
77
00
ENDCHAR
STARTCHAR char89
ENCODING 89
SWIDTH 800 0
DWIDTH 8 0
BBX 8 16 0 -2
BITMAP
00
11
11
11
11
11
01
43
26
04
04
04
04
04
1C
00
ENDCHAR
STARTCHAR char90
ENCODING 90
SWIDTH 800 0
DWIDTH 8 0
BBX 8 16 0 -2
BITMAP
00
01
79
01
03
02
06
04
0C
08
18
10
10
01
7F
00
ENDCHAR
STARTCHAR char91
ENCODING 91
SWIDTH 800 0
DWIDTH 8 0
BBX 8 16 0 -2
BITMAP
00
02
06
04
04
04
04
04
04
04
04
04
04
02
1E
00
ENDCHAR
STARTCHAR char92
ENCODING 92
SWIDTH 800 0
DWIDTH 8 0
BBX 8 16 0 -2
BITMAP
00
20
20
10
10
08
48
04
24
02
12
01
09
01
07
00
ENDCHAR
STARTCHAR char93
ENCODING 93
SWIDTH 800 0
DWIDTH 8 0
BBX 8 16 0 -2
BITMAP
00
04
24
04
04
04
04
04
04
04
04
04
04
04
3C
00
ENDCHAR
STARTCHAR char94
ENCODING 94
SWIDTH 800 0
DWIDTH 8 0
BBX 8 16 0 -2
BITMAP
00
10
08
24
74
4C
00
00
00
00
00
00
00
00
00
00
ENDCHAR
STARTCHAR char95
ENCODING 95
SWIDTH 800 0
DWIDTH 8 0
BBX 8 16 0 -2
BITMAP
00
00
00
00
00
00
00
00
00
00
00
00
00
01
7F
00
ENDCHAR
STARTCHAR char96
ENCODING 96
SWIDTH 800 0
DWIDTH 8 0
BBX 8 16 0 -2
BITMAP
00
00
08
04
24
1C
00
00
00
00
00
00
00
00
00
00
ENDCHAR
STARTCHAR char97
ENCODING 97
SWIDTH 800 0
DWIDTH 8 0
BBX 8 16 0 -2
BITMAP
00
00
00
00
00
00
00
01
09
19
11
11
11
49
3F
00
ENDCHAR
STARTCHAR char98
ENCODING 98
SWIDTH 800 0
DWIDTH 8 0
BBX 8 16 0 -2
BITMAP
00
10
10
10
10
10
10
04
12
19
11
11
11
03
7E
00
ENDCHAR
STARTCHAR char99
ENCODING 99
SWIDTH 800 0
DWIDTH 8 0
BBX 8 16 0 -2
BITMAP
00
00
00
00
00
00
00
02
19
17
10
10
11
43
3E
00
ENDCHAR
STARTCHAR char100
ENCODING 100
SWIDTH 800 0
DWIDTH 8 0
BBX 8 16 0 -2
BITMAP
00
01
01
01
01
01
01
01
09
19
11
11
11
41
3F
00
ENDCHAR
STARTCHAR char101
ENCODING 101
SWIDTH 800 0
DWIDTH 8 0
BBX 8 16 0 -2
BITMAP
00
00
00
00
00
00
00
02
19
11
01
1F
10
41
3F
00
ENDCHAR
STARTCHAR char102
ENCODING 102
SWIDTH 800 0
DWIDTH 8 0
BBX 8 16 0 -2
BITMAP
00
01
07
04
04
04
04
01
67
04
04
04
04
04
0C
18
ENDCHAR
STARTCHAR char103
ENCODING 103
SWIDTH 800 0
DWIDTH 8 0
BBX 8 16 0 -2
BITMAP
00
00
00
00
00
00
00
01
19
11
11
41
39
11
43
3E
ENDCHAR
STARTCHAR char104
ENCODING 104
SWIDTH 800 0
DWIDTH 8 0
BBX 8 16 0 -2
BITMAP
00
10
10
10
10
10
10
02
19
11
11
11
11
11
77
00
ENDCHAR
STARTCHAR char105
ENCODING 105
SWIDTH 800 0
DWIDTH 8 0
BBX 8 16 0 -2
BITMAP
00
00
00
04
04
1C
00
04
04
04
04
04
04
04
1C
00
ENDCHAR
STARTCHAR char106
ENCODING 106
SWIDTH 800 0
DWIDTH 8 0
BBX 8 16 0 -2
BITMAP
00
00
00
01
01
07
00
01
01
01
01
11
11
11
43
3E
ENDCHAR
STARTCHAR char107
ENCODING 107
SWIDTH 800 0
DWIDTH 8 0
BBX 8 16 0 -2
BITMAP
00
10
10
10
10
10
10
11
13
06
04
12
19
11
77
00
ENDCHAR
STARTCHAR char108
ENCODING 108
SWIDTH 800 0
DWIDTH 8 0
BBX 8 16 0 -2
BITMAP
00
04
24
04
04
04
04
04
04
04
04
04
04
02
1E
00
ENDCHAR
STARTCHAR char109
ENCODING 109
SWIDTH 800 0
DWIDTH 8 0
BBX 8 16 0 -2
BITMAP
00
00
00
00
00
00
00
22
11
01
29
29
29
39
67
00
ENDCHAR
STARTCHAR char110
ENCODING 110
SWIDTH 800 0
DWIDTH 8 0
BBX 8 16 0 -2
BITMAP
00
00
00
00
00
00
00
02
19
11
11
11
11
11
77
00
ENDCHAR
STARTCHAR char111
ENCODING 111
SWIDTH 800 0
DWIDTH 8 0
BBX 8 16 0 -2
BITMAP
00
00
00
00
00
00
00
02
19
11
11
11
11
43
3E
00
ENDCHAR
STARTCHAR char112
ENCODING 112
SWIDTH 800 0
DWIDTH 8 0
BBX 8 16 0 -2
BITMAP
00
00
00
00
00
00
00
02
19
11
11
03
1E
10
10
70
ENDCHAR
STARTCHAR char113
ENCODING 113
SWIDTH 800 0
DWIDTH 8 0
BBX 8 16 0 -2
BITMAP
00
00
00
00
00
00
00
01
19
11
11
41
39
01
01
07
ENDCHAR
STARTCHAR char114
ENCODING 114
SWIDTH 800 0
DWIDTH 8 0
BBX 8 16 0 -2
BITMAP
00
00
00
00
00
00
00
12
09
19
17
10
10
10
70
00
ENDCHAR
STARTCHAR char115
ENCODING 115
SWIDTH 800 0
DWIDTH 8 0
BBX 8 16 0 -2
BITMAP
00
00
00
00
00
00
00
02
19
17
42
39
11
43
3E
00
ENDCHAR
STARTCHAR char116
ENCODING 116
SWIDTH 800 0
DWIDTH 8 0
BBX 8 16 0 -2
BITMAP
00
04
04
04
04
04
04
01
67
04
04
04
02
11
0F
00
ENDCHAR
STARTCHAR char117
ENCODING 117
SWIDTH 800 0
DWIDTH 8 0
BBX 8 16 0 -2
BITMAP
00
00
00
00
00
00
00
11
11
11
11
11
11
43
3E
00
ENDCHAR
STARTCHAR char118
ENCODING 118
SWIDTH 800 0
DWIDTH 8 0
BBX 8 16 0 -2
BITMAP
00
00
00
00
00
00
00
11
11
53
02
02
26
04
1C
00
ENDCHAR
STARTCHAR char119
ENCODING 119
SWIDTH 800 0
DWIDTH 8 0
BBX 8 16 0 -2
BITMAP
00
00
00
00
00
00
00
10
10
14
14
14
00
49
3F
00
ENDCHAR
STARTCHAR char120
ENCODING 120
SWIDTH 800 0
DWIDTH 8 0
BBX 8 16 0 -2
BITMAP
00
00
00
00
00
00
00
11
11
11
43
01
19
11
77
00
ENDCHAR
STARTCHAR char121
ENCODING 121
SWIDTH 800 0
DWIDTH 8 0
BBX 8 16 0 -2
BITMAP
00
00
00
00
00
00
00
11
11
11
11
41
39
11
43
3E
ENDCHAR
STARTCHAR char122
ENCODING 122
SWIDTH 800 0
DWIDTH 8 0
BBX 8 16 0 -2
BITMAP
00
00
00
00
00
00
00
01
73
06
0C
18
10
01
7F
00
ENDCHAR
STARTCHAR char123
ENCODING 123
SWIDTH 800 0
DWIDTH 8 0
BBX 8 16 0 -2
BITMAP
00
01
03
06
04
04
0C
08
48
24
04
04
02
11
0F
00
ENDCHAR
STARTCHAR char124
ENCODING 124
SWIDTH 800 0
DWIDTH 8 0
BBX 8 16 0 -2
BITMAP
00
04
04
04
04
04
04
04
04
04
04
04
04
04
1C
00
ENDCHAR
STARTCHAR char125
ENCODING 125
SWIDTH 800 0
DWIDTH 8 0
BBX 8 16 0 -2
BITMAP
00
08
44
24
04
04
12
01
03
06
04
04
04
0C
78
00
ENDCHAR
STARTCHAR char126
ENCODING 126
SWIDTH 800 0
DWIDTH 8 0
BBX 8 16 0 -2
BITMAP
00
00
00
00
08
05
21
73
0E
00
00
00
00
00
00
00
ENDCHAR
STARTCHAR char127
ENCODING 127
SWIDTH 800 0
DWIDTH 8 0
BBX 8 16 0 -2
BITMAP
00
00
00
00
00
00
00
00
00
00
00
00
24
24
7F
00
ENDCHAR
ENDFONT
